<svg xmlns="http://www.w3.org/2000/svg" width="45" height="45" viewBox="0 0 45 45">
  <path d="M45.2,1A.79.79,0,0,0,45,.43.75.75,0,0,0,44.41.2,41,41,0,0,0,20.18,7.92a15.1,15.1,0,0,0-14,4,14.93,14.93,0,0,0-4.33,12,.74.74,0,0,0,.5.65.65.65,0,0,0,.27.05.75.75,0,0,0,.54-.22,15.34,15.34,0,0,1,6.13-3.63,38.76,38.76,0,0,0-2.82,7.07.78.78,0,0,0,.19.77l1.3,1.3L3.44,32.43a.78.78,0,0,0-.39.57.75.75,0,0,0,.22.65l8.45,8.46a.74.74,0,0,0,.54.23h.11a.78.78,0,0,0,.57-.39l2.52-4.5,1.32,1.33a.82.82,0,0,0,.55.22.83.83,0,0,0,.22,0,39.26,39.26,0,0,0,7.05-2.81A15.3,15.3,0,0,1,21,42.27a.77.77,0,0,0,.48,1.31,13.63,13.63,0,0,0,1.42.07,14.91,14.91,0,0,0,10.59-4.39,15.17,15.17,0,0,0,4-14A41,41,0,0,0,45.2,1ZM3.31,22.2A13.44,13.44,0,0,1,7.24,13,13.59,13.59,0,0,1,18.56,9.2c-.89.73-1.74,1.5-2.56,2.32a36.9,36.9,0,0,0-5.72,7.39A16.68,16.68,0,0,0,3.31,22.2Zm8.78,18.09-7-7,4-2.22,5.25,5.24Zm5.46-2.95L8.06,27.85a36,36,0,0,1,9-15.23c6.8-6.8,16-10.54,26.53-10.85-.3,10.57-4.05,19.73-10.85,26.53A36,36,0,0,1,17.55,37.34Zm14.83.83a13.31,13.31,0,0,1-9.18,3.92,16.87,16.87,0,0,0,3.28-7,36.93,36.93,0,0,0,7.4-5.73c.82-.82,1.59-1.68,2.33-2.56A13.61,13.61,0,0,1,32.38,38.17ZM8.28,41.61a9.84,9.84,0,0,1-6.5,2,9.84,9.84,0,0,1,2-6.5.77.77,0,1,0-1.25-.91A11.19,11.19,0,0,0,.31,44.44a.81.81,0,0,0,.65.65,9.9,9.9,0,0,0,1.45.11,11.64,11.64,0,0,0,6.78-2.34.77.77,0,0,0,.17-1.08A.76.76,0,0,0,8.28,41.61ZM30.52,14.88a7.76,7.76,0,1,0,0,11A7.75,7.75,0,0,0,30.52,14.88Zm-1.1,9.88a6.21,6.21,0,1,1,0-8.78A6.17,6.17,0,0,1,29.42,24.76Z"/>
</svg>