<?xml version="1.0" type="text/css" encoding="UTF-8" standalone="no"?>
<svg version="1.1" xmlns="http://www.w3.org/2000/svg" xmlns:xlink="http://www.w3.org/1999/xlink">
   <symbol viewBox="0 0 12 12" id="icon-chat">
        <path d="M6 0C2.68396 0 0 2.6835 0 6C0 7.0524 0.274475 8.08026 0.795685 8.98682L0.0226135 11.3875C-0.031311 11.5549 0.0130005 11.7383 0.137329 11.8627C0.260468 11.9858 0.443481 12.0318 0.612488 11.9774L3.01318 11.2043C3.91974 11.7255 4.9476 12 6 12C9.31604 12 12 9.3165 12 6C12 2.68396 9.3165 0 6 0ZM6 11.0625C5.04941 11.0625 4.1228 10.7973 3.32034 10.2955C3.2049 10.2233 3.06152 10.2038 2.92813 10.2468L1.19513 10.8049L1.75323 9.07187C1.79553 8.9404 1.77768 8.79684 1.70444 8.67966C1.20273 7.8772 0.9375 6.95059 0.9375 6C0.9375 3.20856 3.20856 0.9375 6 0.9375C8.79144 0.9375 11.0625 3.20856 11.0625 6C11.0625 8.79144 8.79144 11.0625 6 11.0625ZM6.58594 6C6.58594 6.32355 6.32364 6.58594 6 6.58594C5.67636 6.58594 5.41406 6.32355 5.41406 6C5.41406 5.67636 5.67636 5.41406 6 5.41406C6.32364 5.41406 6.58594 5.67636 6.58594 6ZM8.92969 6C8.92969 6.32355 8.66739 6.58594 8.34375 6.58594C8.02011 6.58594 7.75781 6.32355 7.75781 6C7.75781 5.67636 8.02011 5.41406 8.34375 5.41406C8.66739 5.41406 8.92969 5.67636 8.92969 6ZM4.24219 6C4.24219 6.32355 3.97989 6.58594 3.65625 6.58594C3.3327 6.58594 3.07031 6.32355 3.07031 6C3.07031 5.67636 3.3327 5.41406 3.65625 5.41406C3.97989 5.41406 4.24219 5.67636 4.24219 6Z"/>
    </symbol>
    <symbol viewBox="0 0 12 8" id="icon-menu">
        <path d="M10.59 0.590027L6 5.17003L1.41 0.590027L0 2.00003L6 8.00003L12 2.00003L10.59 0.590027Z"/>
    </symbol>
    <symbol viewBox="0 0 126 123" id="icon-logo">
        <path d="M60,11A11,11,0,0,1,71,0h55V53a11,11,0,0,1-11,11H60Z" fill="#2992D0"/>
        <path d="M60,70h45a8,8,0,0,1,8,8v45H68a8,8,0,0,1-8-8Zm-7,0H8a8,8,0,0,0-8,8v45H45a8,8,0,0,0,8-8Zm0-6H8a8,8,0,0,1-8-8V11H45a8,8,0,0,1,8,8Z" fill="#A1D7E0"/>
    </symbol>
</svg>