<?xml version="1.0" type="text/css" encoding="UTF-8" standalone="no"?>
<svg version="1.1" xmlns="http://www.w3.org/2000/svg" xmlns:xlink="http://www.w3.org/1999/xlink">
    <symbol viewBox="0 0 12 8" width="12" height="8" id="icon-menu">
        <path d="M10.59 0.590027L6 5.17003L1.41 0.590027L0 2.00003L6 8.00003L12 2.00003L10.59 0.590027Z"/>
    </symbol>
    <symbol viewBox="0 0 126 123" id="icon-logo">
        <path d="M60,11A11,11,0,0,1,71,0h55V53a11,11,0,0,1-11,11H60Z" fill="#2992D0"/>
        <path d="M60,70h45a8,8,0,0,1,8,8v45H68a8,8,0,0,1-8-8Zm-7,0H8a8,8,0,0,0-8,8v45H45a8,8,0,0,0,8-8Zm0-6H8a8,8,0,0,1-8-8V11H45a8,8,0,0,1,8,8Z" fill="#A1D7E0"/>
    </symbol>
</svg>