<svg id="Слой_1" data-name="Слой 1" xmlns="http://www.w3.org/2000/svg" viewBox="0 0 187 54"><defs><style>.cls-1{fill:#2992d0;}.cls-2{fill:#a1d7e0;}</style></defs><title>logo</title><path class="cls-1" d="M89.19,19.71a3.9,3.9,0,0,0-2.8-1.2,4.21,4.21,0,0,0-.62,0,3.93,3.93,0,0,0-2.52,1.55l-.18.26L69.74,39.81V22.59a4.12,4.12,0,0,0-1.16-2.88,3.88,3.88,0,0,0-2.8-1.2,4,4,0,0,0-4,4.08V49.92a4,4,0,0,0,4,4.08,3.86,3.86,0,0,0,2.51-.93,2.58,2.58,0,0,0,.34-.32,3.94,3.94,0,0,0,.7-1l13.1-19.11v17.3a4,4,0,1,0,7.92,0V22.59A4.12,4.12,0,0,0,89.19,19.71Zm29,26.7H102.44V39.23H116a3.39,3.39,0,0,0,0-6.77H102.44V26.1H117a3.8,3.8,0,0,0,0-7.59H98.59a3.35,3.35,0,0,0-3.28,3.4V50.6A3.36,3.36,0,0,0,98.08,54v0h20.11a3.8,3.8,0,0,0,0-7.59ZM138.6,54c-8.68,0-15.75-8-15.75-17.75s7.07-17.74,15.75-17.74a15.59,15.59,0,0,1,13.55,8.68,3.82,3.82,0,0,1-1.47,5.11,3.61,3.61,0,0,1-5-1.51,8.19,8.19,0,0,0-7.11-4.73c-4.64,0-8.42,4.57-8.42,10.2S134,46.45,138.6,46.45c3,0,5.84-2,7.34-5.19a3.62,3.62,0,0,1,4.89-1.77,3.82,3.82,0,0,1,1.71,5C149.81,50.37,144.47,54,138.6,54Zm48.08-5.12L174.06,20.67a3.67,3.67,0,0,0-3.35-2.16h0a3.66,3.66,0,0,0-3.35,2.15L154.58,48.87a3.64,3.64,0,0,0,1.84,4.81,3.69,3.69,0,0,0,4.85-1.83l2.72-6H177.3l2.68,6A3.68,3.68,0,0,0,183.33,54a3.72,3.72,0,0,0,1.49-.31,3.63,3.63,0,0,0,1.86-4.81Zm-19.75-9.53,3.75-8.28,3.71,8.28ZM31,0H54.09V23.09a4.73,4.73,0,0,1-4.73,4.73H26.22V4.72A4.72,4.72,0,0,1,31,0Z"/><path class="cls-2" d="M26.22,30.84H46.31a3.1,3.1,0,0,1,3.11,3.1V54H29.32a3.1,3.1,0,0,1-3.1-3.1V30.84ZM0,4.67H20.09a3.09,3.09,0,0,1,3.1,3.09V27.82H3.1A3.1,3.1,0,0,1,0,24.73ZM23.19,30.84V50.9a3.1,3.1,0,0,1-3.1,3.1H0V33.93a3.1,3.1,0,0,1,3.1-3.09Z"/></svg>